<?xml version="1.0" encoding="UTF-8"?>
<svg id="Layer_2" data-name="Layer 2" xmlns="http://www.w3.org/2000/svg" xmlns:xlink="http://www.w3.org/1999/xlink" viewBox="0 0 184.51 87.11">
  <defs>
    <style>
      .cls-1 {
        fill: url(#linear-gradient-2);
      }

      .cls-2 {
        fill: url(#linear-gradient);
      }

      .cls-3 {
        fill: #fff;
      }
    </style>
    <linearGradient id="linear-gradient" x1="136.95" y1="81.94" x2="182.97" y2="35.93" gradientUnits="userSpaceOnUse">
      <stop offset="0" stop-color="#3478ec"/>
      <stop offset=".15" stop-color="#3876e9"/>
      <stop offset=".31" stop-color="#4471e1"/>
      <stop offset=".47" stop-color="#5868d4"/>
      <stop offset=".63" stop-color="#755cc1"/>
      <stop offset=".79" stop-color="#9a4caa"/>
      <stop offset=".95" stop-color="#c6398d"/>
      <stop offset="1" stop-color="#d63384"/>
    </linearGradient>
    <linearGradient id="linear-gradient-2" x1="113.46" y1="51.18" x2="159.47" y2="5.17" xlink:href="#linear-gradient"/>
  </defs>
  <g id="Layer_1-2" data-name="Layer 1">
    <g>
      <g>
        <g>
          <path class="cls-3" d="M14.72,59.06v2.52c0,.5-.37.93-.87.99-.92.11-1.82.29-2.7.54-1.16.33-2.22.85-3.18,1.54-.96.69-1.72,1.63-2.29,2.81-.57,1.18-.85,2.65-.85,4.43v14.22c0,.55-.45,1-1,1H1c-.55,0-1-.45-1-1v-14.26c.08-2.55.56-4.69,1.43-6.43.87-1.73,2.02-3.13,3.43-4.2,1.41-1.07,2.97-1.85,4.68-2.35,1.34-.39,2.69-.66,4.05-.82.6-.07,1.12.4,1.12,1Z"/>
          <path class="cls-3" d="M39.11,86.11v-27.1c0-.55.45-1,1-1h2.82c.55,0,1,.45,1,1v23.41c1.22,0,2.41-.15,3.58-.46,1.16-.3,2.22-.81,3.16-1.52.94-.71,1.7-1.66,2.27-2.87.57-1.21.85-2.7.85-4.47v-14.09c0-.55.45-1,1-1h2.65c.55,0,1,.45,1,1v23.41c1.22,0,2.41-.15,3.58-.46,1.16-.3,2.23-.81,3.2-1.52.97-.71,1.74-1.66,2.31-2.87.57-1.21.85-2.7.85-4.47v-14.09c0-.55.45-1,1-1h2.82c.55,0,1,.45,1,1v14.09c0,4.49-1.25,7.87-3.74,10.13-2.5,2.26-6.47,3.56-11.94,3.89h-2.74c-.55,0-1-.45-1-1v-2.99c-1.11,1.16-2.2,2.03-3.29,2.6-1.08.57-2.27.94-3.56,1.12-1.29.18-2.81.27-4.55.27h-2.28c-.55,0-1-.45-1-1Z"/>
          <path class="cls-3" d="M78.04,86.11v-27.1c0-.55.45-1,1-1h2.82c.55,0,1,.45,1,1v27.1c0,.55-.45,1-1,1h-2.82c-.55,0-1-.45-1-1Z"/>
          <path class="cls-3" d="M33.27,87.11c.55,0,1-.45,1-1v-14.26c-.08-2.55-.56-4.69-1.43-6.43-.87-1.73-2.02-3.13-3.43-4.2-1.41-1.07-2.97-1.85-4.68-2.35-1.34-.39-2.69-.66-4.05-.82-.6-.07-1.12.4-1.12,1v2.52c0,.5.37.93.87.99.92.11,1.82.29,2.7.54,1.16.33,2.22.85,3.18,1.54.96.69,1.72,1.63,2.29,2.81.12.26.23.53.32.81-.66,0-1.38.03-2.17.06-1,.04-2.01.15-3.04.31-1.03.17-1.97.42-2.83.75-1.69.67-3.02,1.68-3.99,3.06-.97,1.37-1.46,3.14-1.46,5.3s.48,3.97,1.43,5.34c.96,1.37,2.25,2.38,3.87,3.04,1.62.65,3.43.98,5.43.98h7.11ZM29.45,72.72v9.94h-3.74c-1.91,0-3.38-.42-4.39-1.27-1.01-.85-1.52-1.96-1.52-3.35,0-1.69.57-3,1.71-3.93,1.14-.93,2.85-1.39,5.16-1.39h2.79Z"/>
        </g>
        <rect class="cls-3" x="78.03" y="50.67" width="4.85" height="4.85" rx="1" ry="1"/>
      </g>
      <g>
        <path class="cls-2" d="M153.47,87.11h-10.52c-1.1,0-2-.9-2-2v-5.26c0-10.95,0-16.44,1.83-21.68,1.61-4.6,4.29-8.86,7.73-12.31,3.45-3.45,7.71-6.12,12.31-7.73,4.91-1.72,10.04-1.83,19.67-1.83,1.11,0,2.01.9,2.01,2v10.52c0,1.1-.9,2-2.01,2-7.75,0-12.19.08-14.88,1.02-5.24,1.83-9.3,5.89-11.14,11.14-1.02,2.91-1.02,7.87-1.02,16.88v5.26c0,1.1-.9,2-2,2Z"/>
        <path class="cls-1" d="M111.91,48.81v-10.52c0-1.1.9-2,2.01-2,7.75,0,12.19-.08,14.88-1.02,5.24-1.83,9.3-5.89,11.14-11.14,1.02-2.91,1.02-7.87,1.02-16.88V2c0-1.1.9-2,2-2h10.52c1.1,0,2,.9,2,2v5.26c0,10.95,0,16.44-1.83,21.68-1.61,4.6-4.29,8.86-7.73,12.31-3.45,3.45-7.71,6.12-12.31,7.73-4.91,1.72-10.04,1.83-19.67,1.83-1.11,0-2.01-.9-2.01-2Z"/>
      </g>
      <g>
        <g>
          <path class="cls-3" d="M79.1,0c-.55,0-1,.45-1,1v14.07c0,1.76-.28,3.22-.84,4.38-.56,1.17-1.32,2.09-2.26,2.78-.95.69-2,1.19-3.15,1.52-.88.25-1.77.43-2.67.54-.5.06-.87.48-.87.98v2.5c0,.6.52,1.06,1.11.99,1.35-.15,2.69-.42,4.01-.81,1.69-.49,3.23-1.27,4.63-2.33,1.4-1.06,2.53-2.44,3.4-4.16.86-1.71,1.34-3.84,1.42-6.36V1c0-.55-.45-1-1-1h-2.79Z"/>
          <path class="cls-3" d="M45.93.04c-1.98,0-3.77.32-5.37.97-1.61.64-2.88,1.65-3.83,3.01-.95,1.36-1.42,3.12-1.42,5.29s.48,3.89,1.44,5.25c.96,1.36,2.28,2.37,3.95,3.03.85.33,1.78.58,2.8.74,1.01.16,2.02.27,3.01.31.79.03,1.5.05,2.15.06-.1.28-.2.55-.32.81-.56,1.17-1.32,2.09-2.26,2.78-.95.69-2,1.19-3.15,1.52-.88.25-1.77.43-2.67.54-.5.06-.87.48-.87.98v2.5c0,.6.52,1.06,1.11.99,1.35-.15,2.69-.42,4.01-.81,1.69-.49,3.23-1.27,4.63-2.33,1.4-1.06,2.53-2.44,3.4-4.16.86-1.71,1.34-3.84,1.42-6.36V1.04c0-.55-.45-1-1-1h-7.03ZM49.19,14.29h-2.76c-2.28,0-3.98-.46-5.1-1.38-1.13-.92-1.69-2.22-1.69-3.89,0-1.37.5-2.48,1.5-3.31,1-.84,2.45-1.26,4.34-1.26h3.71v9.84Z"/>
          <path class="cls-3" d="M26.41,11.4c-.99-.38-2.1-.65-3.33-.8-1.24-.15-2.39-.24-3.46-.27,0-.88.09-1.68.27-2.41.18-.73.54-1.34,1.09-1.85.55-.51,1.39-.9,2.53-1.17,1.14-.27,2.68-.41,4.63-.41h2.5c.55,0,1-.45,1-1V1.04c0-.55-.45-1-1-1h-3.49c-1.21,0-2.42.09-3.64.27-1.22.18-2.37.54-3.46,1.09-1.08.55-2.03,1.36-2.84,2.43-.81,1.07-1.41,2.49-1.79,4.26-.34,1.55-.44,3.44-.31,5.66.03.53.46.95.99.95h4.59c2.28,0,3.98.46,5.11,1.38,1.12.92,1.69,2.22,1.69,3.89,0,1.35-.5,2.44-1.5,3.29-1,.85-2.45,1.28-4.34,1.28h-6.54c-.55,0-1,.45-1,1v2.41c0,.55.45,1,1,1h6.09c1.98,0,3.77-.32,5.37-.97,1.61-.64,2.88-1.65,3.83-3.03.95-1.37,1.42-3.13,1.42-5.27s-.47-3.89-1.42-5.25-2.27-2.37-3.97-3.03Z"/>
          <rect class="cls-3" x="58.75" y=".02" width="4.78" height="28.82" rx="1" ry="1"/>
        </g>
        <rect class="cls-3" x="14.1" y="31.36" width="9.61" height="4.8" rx="1" ry="1"/>
      </g>
    </g>
  </g>
</svg>