<?xml version="1.0" encoding="UTF-8"?>
<svg id="Layer_2" data-name="Layer 2" xmlns="http://www.w3.org/2000/svg" xmlns:xlink="http://www.w3.org/1999/xlink" viewBox="0 0 239.87 87.21">
  <defs>
    <style>
      .cls-1 {
        fill: url(#linear-gradient-2);
      }

      .cls-2 {
        fill: url(#linear-gradient);
      }

      .cls-3 {
        fill: #fff;
      }
    </style>
    <linearGradient id="linear-gradient" x1="192.31" y1="81.94" x2="238.32" y2="35.93" gradientUnits="userSpaceOnUse">
      <stop offset="0" stop-color="#3478ec"/>
      <stop offset=".15" stop-color="#3876e9"/>
      <stop offset=".31" stop-color="#4471e1"/>
      <stop offset=".47" stop-color="#5868d4"/>
      <stop offset=".63" stop-color="#755cc1"/>
      <stop offset=".79" stop-color="#9a4caa"/>
      <stop offset=".95" stop-color="#c6398d"/>
      <stop offset="1" stop-color="#d63384"/>
    </linearGradient>
    <linearGradient id="linear-gradient-2" x1="168.82" y1="51.18" x2="214.83" y2="5.17" xlink:href="#linear-gradient"/>
  </defs>
  <g id="Layer_1-2" data-name="Layer 1">
    <g>
      <g>
        <path class="cls-2" d="M208.83,87.11h-10.52c-1.1,0-2-.9-2-2v-5.26c0-10.95,0-16.44,1.83-21.68,1.61-4.6,4.29-8.86,7.73-12.31,3.45-3.45,7.71-6.12,12.31-7.73,4.91-1.72,10.04-1.83,19.67-1.83,1.11,0,2.01.9,2.01,2v10.52c0,1.1-.9,2-2.01,2-7.75,0-12.19.08-14.88,1.02-5.24,1.83-9.3,5.89-11.14,11.14-1.02,2.91-1.02,7.87-1.02,16.88v5.26c0,1.1-.9,2-2,2Z"/>
        <path class="cls-1" d="M167.27,48.81v-10.52c0-1.1.9-2,2.01-2,7.75,0,12.19-.08,14.88-1.02,5.24-1.83,9.3-5.89,11.14-11.14,1.02-2.91,1.02-7.87,1.02-16.88V2c0-1.1.9-2,2-2h10.52c1.1,0,2,.9,2,2v5.26c0,10.95,0,16.44-1.83,21.68-1.61,4.6-4.29,8.86-7.73,12.31-3.45,3.45-7.71,6.12-12.31,7.73-4.91,1.72-10.04,1.83-19.67,1.83-1.11,0-2.01-.9-2.01-2Z"/>
      </g>
      <g>
        <g>
          <path class="cls-3" d="M130.64,14.52c-1.1,0-2,.9-2,2v28.28c0,3.53-.57,6.47-1.7,8.81-1.13,2.34-2.65,4.21-4.55,5.58-1.9,1.38-4.01,2.4-6.33,3.06-1.76.5-3.55.86-5.38,1.08-1,.12-1.74.97-1.74,1.98v5.01c0,1.2,1.05,2.13,2.24,1.99,2.71-.3,5.4-.85,8.06-1.62,3.39-.99,6.5-2.55,9.31-4.67,2.81-2.12,5.09-4.91,6.83-8.36,1.74-3.45,2.69-7.71,2.85-12.78v-28.37c0-1.1-.9-2-2-2h-5.6Z"/>
          <path class="cls-3" d="M63.99,14.6c-3.97,0-7.57.65-10.8,1.94-3.23,1.3-5.79,3.31-7.7,6.04-1.9,2.73-2.85,6.28-2.85,10.63s.96,7.82,2.9,10.55c1.93,2.73,4.58,4.76,7.94,6.08,1.71.66,3.59,1.16,5.63,1.49,2.04.33,4.05.54,6.04.62,1.58.07,3.02.1,4.33.12-.19.56-.4,1.11-.64,1.62-1.13,2.34-2.65,4.21-4.55,5.58-1.9,1.38-4.01,2.4-6.33,3.06-1.76.5-3.55.86-5.38,1.08-1,.12-1.74.97-1.74,1.98v5.01c0,1.2,1.05,2.13,2.24,1.99,2.71-.3,5.4-.85,8.06-1.62,3.39-.99,6.5-2.55,9.31-4.67,2.81-2.12,5.09-4.91,6.83-8.36,1.74-3.45,2.69-7.71,2.85-12.78v-28.37c0-1.1-.9-2-2-2h-14.13ZM70.52,43.23h-5.54c-4.58,0-8-.92-10.26-2.77-2.26-1.85-3.39-4.45-3.39-7.82,0-2.76,1.01-4.98,3.02-6.66,2.01-1.68,4.92-2.52,8.73-2.52h7.45v19.78Z"/>
          <path class="cls-3" d="M24.74,37.44c-1.99-.77-4.22-1.31-6.7-1.61-2.48-.3-4.8-.48-6.95-.54,0-1.77.18-3.38.54-4.84.36-1.46,1.09-2.7,2.19-3.72,1.1-1.02,2.8-1.81,5.09-2.36,2.29-.55,5.39-.83,9.31-.83h5.03c1.1,0,2-.9,2-2v-4.94c0-1.1-.9-2-2-2h-7.02c-2.43,0-4.87.18-7.32.54-2.45.36-4.77,1.09-6.95,2.19-2.18,1.1-4.08,2.73-5.71,4.88-1.63,2.15-2.83,5.01-3.6,8.56-.68,3.12-.89,6.91-.63,11.37.06,1.07.93,1.91,2,1.91h9.22c4.58,0,8,.92,10.26,2.77,2.26,1.85,3.39,4.46,3.39,7.82,0,2.7-1.01,4.91-3.02,6.62-2.01,1.71-4.92,2.57-8.73,2.57H2c-1.1,0-2,.9-2,2v4.85c0,1.1.9,2,2,2h12.23c3.97,0,7.57-.65,10.8-1.94,3.23-1.3,5.79-3.32,7.69-6.08,1.9-2.76,2.85-6.29,2.85-10.59s-.95-7.82-2.85-10.55c-1.9-2.73-4.56-4.76-7.98-6.08Z"/>
          <rect class="cls-3" x="89.74" y="14.56" width="9.6" height="57.92" rx="2" ry="2"/>
        </g>
        <rect class="cls-3" y="77.55" width="19.31" height="9.65" rx="2" ry="2"/>
      </g>
    </g>
  </g>
</svg>