<?xml version="1.0" encoding="UTF-8"?>
<svg id="Layer_2" data-name="Layer 2" xmlns="http://www.w3.org/2000/svg" viewBox="0 0 165.1 72.59">
  <defs>
    <style>
      .cls-1 {
        fill: #fff;
      }
    </style>
  </defs>
  <g id="Layer_1-2" data-name="Layer 1">
    <g>
      <g>
        <path class="cls-1" d="M29.33,16.71v5.03c0,1-.74,1.86-1.74,1.98-1.83.22-3.62.58-5.38,1.08-2.32.66-4.43,1.68-6.34,3.07-1.91,1.38-3.42,3.24-4.56,5.59-1.13,2.35-1.7,5.29-1.7,8.82v28.32c0,1.1-.9,2-2,2H2c-1.1,0-2-.9-2-2v-28.4c.17-5.08,1.12-9.35,2.86-12.8,1.74-3.45,4.02-6.24,6.83-8.37,2.82-2.13,5.92-3.69,9.32-4.68,2.67-.78,5.36-1.32,8.08-1.63,1.19-.13,2.24.79,2.24,1.99Z"/>
        <path class="cls-1" d="M77.91,70.59V16.6c0-1.1.9-2,2-2h5.61c1.1,0,2,.9,2,2v46.63c2.43,0,4.8-.3,7.12-.91,2.32-.61,4.42-1.62,6.3-3.02,1.88-1.41,3.38-3.31,4.51-5.72,1.13-2.4,1.7-5.37,1.7-8.91v-28.07c0-1.1.9-2,2-2h5.28c1.1,0,2,.9,2,2v46.63c2.43,0,4.8-.3,7.12-.91,2.32-.61,4.45-1.62,6.38-3.02,1.93-1.41,3.47-3.31,4.6-5.72,1.13-2.4,1.7-5.37,1.7-8.91v-28.07c0-1.1.9-2,2-2h5.61c1.1,0,2,.9,2,2v28.07c0,8.95-2.49,15.67-7.46,20.17-4.97,4.5-12.9,7.08-23.78,7.75h-5.46c-1.1,0-2-.9-2-2v-5.95c-2.21,2.32-4.39,4.05-6.54,5.18-2.15,1.13-4.51,1.88-7.08,2.24-2.57.36-5.59.54-9.07.54h-4.54c-1.1,0-2-.9-2-2Z"/>
        <path class="cls-1" d="M155.47,70.59V16.6c0-1.1.9-2,2-2h5.61c1.1,0,2,.9,2,2v53.99c0,1.1-.9,2-2,2h-5.61c-1.1,0-2-.9-2-2Z"/>
        <path class="cls-1" d="M66.29,72.59c1.1,0,2-.9,2-2v-28.4c-.17-5.08-1.12-9.35-2.86-12.8-1.74-3.45-4.02-6.24-6.83-8.37-2.82-2.13-5.92-3.69-9.32-4.68-2.67-.78-5.36-1.32-8.08-1.63-1.19-.13-2.24.79-2.24,1.99v5.03c0,1,.74,1.86,1.74,1.98,1.83.22,3.62.58,5.38,1.08,2.32.66,4.43,1.68,6.34,3.07,1.91,1.38,3.42,3.24,4.56,5.59.25.51.45,1.06.64,1.62-1.31.01-2.74.05-4.33.12-1.99.08-4.01.29-6.05.62-2.04.33-3.92.83-5.63,1.49-3.37,1.32-6.02,3.36-7.95,6.09-1.93,2.73-2.9,6.25-2.9,10.56s.95,7.91,2.86,10.65c1.91,2.73,4.47,4.75,7.7,6.05,3.23,1.3,6.83,1.95,10.81,1.95h14.15ZM58.68,43.93v19.8h-7.46c-3.81,0-6.73-.84-8.74-2.53-2.02-1.69-3.02-3.91-3.02-6.67,0-3.37,1.13-5.98,3.4-7.83,2.26-1.85,5.69-2.78,10.27-2.78h5.55Z"/>
      </g>
      <rect class="cls-1" x="155.45" width="9.65" height="9.65" rx="2" ry="2"/>
    </g>
  </g>
</svg>