<?xml version="1.0" encoding="UTF-8"?>
<svg id="Layer_2" data-name="Layer 2" xmlns="http://www.w3.org/2000/svg" xmlns:xlink="http://www.w3.org/1999/xlink" viewBox="0 0 72.59 152.69">
  <defs>
    <style>
      .cls-1 {
        fill: url(#linear-gradient-2);
      }

      .cls-2 {
        fill: url(#linear-gradient);
      }

      .cls-3 {
        fill: #fff;
      }
    </style>
    <linearGradient id="linear-gradient" x1="25.04" y1="81.94" x2="71.05" y2="35.93" gradientUnits="userSpaceOnUse">
      <stop offset="0" stop-color="#3478ec"/>
      <stop offset=".15" stop-color="#3876e9"/>
      <stop offset=".31" stop-color="#4471e1"/>
      <stop offset=".47" stop-color="#5868d4"/>
      <stop offset=".63" stop-color="#755cc1"/>
      <stop offset=".79" stop-color="#9a4caa"/>
      <stop offset=".95" stop-color="#c6398d"/>
      <stop offset="1" stop-color="#d63384"/>
    </linearGradient>
    <linearGradient id="linear-gradient-2" x1="1.54" y1="51.18" x2="47.55" y2="5.17" xlink:href="#linear-gradient"/>
  </defs>
  <g id="Layer_1-2" data-name="Layer 1">
    <g>
      <rect class="cls-3" x="1.55" y="147.84" width="9.71" height="4.85"/>
      <g>
        <path class="cls-2" d="M41.56,87.11h-10.52c-1.1,0-2-.9-2-2v-5.26c0-10.95,0-16.44,1.83-21.68,1.61-4.6,4.29-8.86,7.73-12.31,3.45-3.45,7.71-6.12,12.31-7.73,4.91-1.72,10.04-1.83,19.67-1.83,1.11,0,2.01.9,2.01,2v10.52c0,1.1-.9,2-2.01,2-7.75,0-12.19.08-14.88,1.02-5.24,1.83-9.3,5.89-11.14,11.14-1.02,2.91-1.02,7.87-1.02,16.88v5.26c0,1.1-.9,2-2,2Z"/>
        <path class="cls-1" d="M0,48.81v-10.52c0-1.1.9-2,2.01-2,7.75,0,12.19-.08,14.88-1.02,5.24-1.83,9.3-5.89,11.14-11.14,1.02-2.91,1.02-7.87,1.02-16.88V2c0-1.1.9-2,2-2h10.52c1.1,0,2,.9,2,2v5.26c0,10.95,0,16.44-1.83,21.68-1.61,4.6-4.29,8.86-7.73,12.31-3.45,3.45-7.71,6.12-12.31,7.73-4.91,1.72-10.04,1.83-19.67,1.83C.9,50.81,0,49.92,0,48.81Z"/>
      </g>
      <g>
        <g>
          <path class="cls-3" d="M67.21,116.17c-.56,0-1,.45-1,1v14.21c0,1.77-.28,3.25-.85,4.43-.57,1.18-1.33,2.11-2.29,2.81-.96.69-2.02,1.21-3.18,1.54-.88.25-1.78.43-2.7.54-.5.06-.87.49-.87.99v2.52c0,.6.53,1.07,1.12,1,1.36-.15,2.71-.42,4.05-.82,1.7-.5,3.26-1.28,4.68-2.35,1.41-1.07,2.56-2.47,3.43-4.2.87-1.73,1.35-3.87,1.43-6.42v-14.25c0-.56-.45-1-1-1h-2.81Z"/>
          <path class="cls-3" d="M33.72,116.21c-2,0-3.8.33-5.43.98-1.62.65-2.91,1.66-3.87,3.03-.96,1.37-1.43,3.15-1.43,5.34s.48,3.93,1.46,5.3c.97,1.37,2.3,2.39,3.99,3.06.86.33,1.8.58,2.83.75,1.02.17,2.04.27,3.03.31.8.03,1.52.05,2.17.06-.1.28-.2.56-.32.81-.57,1.18-1.33,2.11-2.29,2.81-.96.69-2.02,1.21-3.18,1.54-.88.25-1.78.43-2.7.54-.5.06-.87.49-.87.99v2.52c0,.6.53,1.07,1.12,1,1.36-.15,2.71-.42,4.05-.82,1.7-.5,3.26-1.28,4.68-2.35,1.41-1.07,2.56-2.47,3.43-4.2.87-1.73,1.35-3.87,1.43-6.42v-14.25c0-.56-.45-1-1-1h-7.1ZM37,130.59h-2.79c-2.3,0-4.02-.46-5.16-1.39-1.14-.93-1.7-2.24-1.7-3.93,0-1.39.51-2.5,1.52-3.35,1.01-.85,2.47-1.27,4.39-1.27h3.74v9.94Z"/>
          <path class="cls-3" d="M14,127.68c-1-.39-2.12-.66-3.37-.81-1.25-.15-2.41-.24-3.49-.27,0-.89.09-1.7.27-2.43.18-.73.55-1.36,1.1-1.87.55-.51,1.41-.91,2.56-1.18,1.15-.28,2.71-.42,4.68-.42h2.53c.56,0,1-.45,1-1v-2.48c0-.56-.45-1-1-1h-3.53c-1.22,0-2.45.09-3.68.27-1.23.18-2.4.55-3.49,1.1-1.1.55-2.05,1.37-2.87,2.45-.82,1.08-1.42,2.52-1.81,4.3-.34,1.57-.45,3.47-.32,5.71.03.54.47.96,1,.96h4.63c2.3,0,4.02.46,5.16,1.39,1.14.93,1.7,2.24,1.7,3.93,0,1.36-.51,2.47-1.52,3.33-1.01.86-2.47,1.29-4.39,1.29H2.57c-.56,0-1,.45-1,1v2.44c0,.56.45,1,1,1h6.15c2,0,3.8-.33,5.43-.98,1.62-.65,2.91-1.67,3.87-3.06.96-1.39,1.43-3.16,1.43-5.32s-.48-3.93-1.43-5.3-2.29-2.39-4.01-3.06Z"/>
          <rect class="cls-3" x="46.66" y="116.19" width="4.82" height="29.1" rx="1" ry="1"/>
        </g>
        <rect class="cls-3" x="1.57" y="147.84" width="9.7" height="4.85" rx="1" ry="1"/>
      </g>
    </g>
  </g>
</svg>