<?xml version="1.0" encoding="UTF-8"?>
<svg id="Layer_2" data-name="Layer 2" xmlns="http://www.w3.org/2000/svg" xmlns:xlink="http://www.w3.org/1999/xlink" viewBox="0 0 82.8 145.31">
  <defs>
    <style>
      .cls-1 {
        fill: url(#linear-gradient-2);
      }

      .cls-2 {
        fill: url(#linear-gradient);
      }

      .cls-3 {
        fill: #fff;
      }
    </style>
    <linearGradient id="linear-gradient" x1="30.14" y1="81.94" x2="76.15" y2="35.93" gradientUnits="userSpaceOnUse">
      <stop offset="0" stop-color="#3478ec"/>
      <stop offset=".15" stop-color="#3876e9"/>
      <stop offset=".31" stop-color="#4471e1"/>
      <stop offset=".47" stop-color="#5868d4"/>
      <stop offset=".63" stop-color="#755cc1"/>
      <stop offset=".79" stop-color="#9a4caa"/>
      <stop offset=".95" stop-color="#c6398d"/>
      <stop offset="1" stop-color="#d63384"/>
    </linearGradient>
    <linearGradient id="linear-gradient-2" x1="6.64" y1="51.18" x2="52.66" y2="5.17" xlink:href="#linear-gradient"/>
  </defs>
  <g id="Layer_1-2" data-name="Layer 1">
    <g>
      <g>
        <g>
          <path class="cls-3" d="M14.71,117.29v2.52c0,.5-.37.93-.87.99-.92.11-1.82.29-2.7.54-1.16.33-2.22.84-3.18,1.54-.96.69-1.72,1.63-2.29,2.8-.57,1.18-.85,2.65-.85,4.42v14.2c0,.55-.45,1-1,1H1c-.55,0-1-.45-1-1v-14.24c.08-2.55.56-4.69,1.43-6.42.87-1.73,2.02-3.13,3.43-4.2,1.41-1.07,2.97-1.85,4.67-2.35,1.34-.39,2.69-.66,4.05-.82.6-.07,1.12.4,1.12,1Z"/>
          <path class="cls-3" d="M39.07,144.31v-27.08c0-.55.45-1,1-1h2.81c.55,0,1,.45,1,1v23.38c1.22,0,2.41-.15,3.57-.46,1.16-.3,2.22-.81,3.16-1.52.94-.71,1.7-1.66,2.26-2.87.57-1.2.85-2.69.85-4.47v-14.08c0-.55.45-1,1-1h2.65c.55,0,1,.45,1,1v23.38c1.22,0,2.41-.15,3.57-.46,1.16-.3,2.23-.81,3.2-1.52.97-.71,1.74-1.66,2.31-2.87.57-1.2.85-2.69.85-4.47v-14.08c0-.55.45-1,1-1h2.81c.55,0,1,.45,1,1v14.08c0,4.49-1.25,7.86-3.74,10.12-2.49,2.26-6.47,3.55-11.92,3.88h-2.74c-.55,0-1-.45-1-1v-2.99c-1.11,1.16-2.2,2.03-3.28,2.6-1.08.57-2.26.94-3.55,1.12-1.29.18-2.8.27-4.55.27h-2.28c-.55,0-1-.45-1-1Z"/>
          <path class="cls-3" d="M77.97,144.31v-27.08c0-.55.45-1,1-1h2.81c.55,0,1,.45,1,1v27.08c0,.55-.45,1-1,1h-2.81c-.55,0-1-.45-1-1Z"/>
          <path class="cls-3" d="M33.24,145.31c.55,0,1-.45,1-1v-14.24c-.08-2.55-.56-4.69-1.43-6.42-.87-1.73-2.02-3.13-3.43-4.2-1.41-1.07-2.97-1.85-4.67-2.35-1.34-.39-2.69-.66-4.05-.82-.6-.07-1.12.4-1.12,1v2.52c0,.5.37.93.87.99.92.11,1.82.29,2.7.54,1.16.33,2.22.84,3.18,1.54.96.69,1.72,1.63,2.29,2.8.12.26.23.53.32.81-.65,0-1.38.03-2.17.06-1,.04-2.01.15-3.03.31-1.03.17-1.97.42-2.83.75-1.69.66-3.02,1.68-3.99,3.05-.97,1.37-1.45,3.14-1.45,5.3s.48,3.97,1.43,5.34c.96,1.37,2.24,2.38,3.86,3.03,1.62.65,3.43.98,5.42.98h7.1ZM29.43,130.94v9.93h-3.74c-1.91,0-3.37-.42-4.38-1.27-1.01-.85-1.52-1.96-1.52-3.34,0-1.69.57-3,1.7-3.93,1.14-.93,2.85-1.39,5.15-1.39h2.78Z"/>
        </g>
        <rect class="cls-3" x="77.96" y="108.91" width="4.84" height="4.84" rx="1" ry="1"/>
      </g>
      <g>
        <path class="cls-2" d="M46.66,87.11h-10.52c-1.1,0-2-.9-2-2v-5.26c0-10.95,0-16.44,1.83-21.68,1.61-4.6,4.29-8.86,7.73-12.31,3.45-3.45,7.71-6.12,12.31-7.73,4.91-1.72,10.04-1.83,19.67-1.83,1.11,0,2.01.9,2.01,2v10.52c0,1.1-.9,2-2.01,2-7.75,0-12.19.08-14.88,1.02-5.24,1.83-9.3,5.89-11.14,11.14-1.02,2.91-1.02,7.87-1.02,16.88v5.26c0,1.1-.9,2-2,2Z"/>
        <path class="cls-1" d="M5.1,48.81v-10.52c0-1.1.9-2,2.01-2,7.75,0,12.19-.08,14.88-1.02,5.24-1.83,9.3-5.89,11.14-11.14,1.02-2.91,1.02-7.87,1.02-16.88V2c0-1.1.9-2,2-2h10.52c1.1,0,2,.9,2,2v5.26c0,10.95,0,16.44-1.83,21.68-1.61,4.6-4.29,8.86-7.73,12.31-3.45,3.45-7.71,6.12-12.31,7.73-4.91,1.72-10.04,1.83-19.67,1.83-1.11,0-2.01-.9-2.01-2Z"/>
      </g>
    </g>
  </g>
</svg>