<?xml version="1.0" encoding="UTF-8"?>
<svg id="Layer_2" data-name="Layer 2" xmlns="http://www.w3.org/2000/svg" xmlns:xlink="http://www.w3.org/1999/xlink" viewBox="0 0 266.88 87.11">
  <defs>
    <style>
      .cls-1 {
        fill: url(#linear-gradient-2);
      }

      .cls-2 {
        fill: url(#linear-gradient);
      }

      .cls-3 {
        fill: #fff;
      }
    </style>
    <linearGradient id="linear-gradient" x1="25.04" y1="81.94" x2="71.05" y2="35.93" gradientUnits="userSpaceOnUse">
      <stop offset="0" stop-color="#3478ec"/>
      <stop offset=".15" stop-color="#3876e9"/>
      <stop offset=".31" stop-color="#4471e1"/>
      <stop offset=".47" stop-color="#5868d4"/>
      <stop offset=".63" stop-color="#755cc1"/>
      <stop offset=".79" stop-color="#9a4caa"/>
      <stop offset=".95" stop-color="#c6398d"/>
      <stop offset="1" stop-color="#d63384"/>
    </linearGradient>
    <linearGradient id="linear-gradient-2" x1="1.54" y1="51.18" x2="47.55" y2="5.17" xlink:href="#linear-gradient"/>
  </defs>
  <g id="Layer_1-2" data-name="Layer 1">
    <g>
      <g>
        <g>
          <path class="cls-3" d="M131.1,16.84v5.03c0,1-.74,1.86-1.74,1.98-1.83.22-3.62.58-5.38,1.08-2.32.66-4.43,1.68-6.34,3.07-1.91,1.38-3.42,3.24-4.56,5.59-1.13,2.35-1.7,5.29-1.7,8.82v28.32c0,1.1-.9,2-2,2h-5.61c-1.1,0-2-.9-2-2v-28.4c.17-5.08,1.12-9.35,2.86-12.8,1.74-3.45,4.02-6.24,6.83-8.37,2.82-2.13,5.92-3.69,9.32-4.68,2.67-.78,5.36-1.32,8.08-1.63,1.19-.13,2.24.79,2.24,1.99Z"/>
          <path class="cls-3" d="M179.69,70.72V16.73c0-1.1.9-2,2-2h5.61c1.1,0,2,.9,2,2v46.63c2.43,0,4.8-.3,7.12-.91,2.32-.61,4.42-1.62,6.3-3.02,1.88-1.41,3.38-3.31,4.51-5.72,1.13-2.4,1.7-5.37,1.7-8.91v-28.07c0-1.1.9-2,2-2h5.28c1.1,0,2,.9,2,2v46.63c2.43,0,4.8-.3,7.12-.91,2.32-.61,4.45-1.62,6.38-3.02,1.93-1.41,3.47-3.31,4.6-5.72,1.13-2.4,1.7-5.37,1.7-8.91v-28.07c0-1.1.9-2,2-2h5.61c1.1,0,2,.9,2,2v28.07c0,8.95-2.49,15.67-7.46,20.17-4.97,4.5-12.9,7.08-23.78,7.75h-5.46c-1.1,0-2-.9-2-2v-5.95c-2.21,2.32-4.39,4.05-6.54,5.18-2.15,1.13-4.51,1.88-7.08,2.24-2.57.36-5.59.54-9.07.54h-4.54c-1.1,0-2-.9-2-2Z"/>
          <path class="cls-3" d="M257.24,70.72V16.73c0-1.1.9-2,2-2h5.61c1.1,0,2,.9,2,2v53.99c0,1.1-.9,2-2,2h-5.61c-1.1,0-2-.9-2-2Z"/>
          <path class="cls-3" d="M168.06,72.72c1.1,0,2-.9,2-2v-28.4c-.17-5.08-1.12-9.35-2.86-12.8-1.74-3.45-4.02-6.24-6.83-8.37-2.82-2.13-5.92-3.69-9.32-4.68-2.67-.78-5.36-1.32-8.08-1.63-1.19-.13-2.24.79-2.24,1.99v5.03c0,1,.74,1.86,1.74,1.98,1.83.22,3.62.58,5.38,1.08,2.32.66,4.43,1.68,6.34,3.07,1.91,1.38,3.42,3.24,4.56,5.59.25.51.45,1.06.64,1.62-1.31.01-2.74.05-4.33.12-1.99.08-4.01.29-6.05.62-2.04.33-3.92.83-5.63,1.49-3.37,1.32-6.02,3.36-7.95,6.09-1.93,2.73-2.9,6.25-2.9,10.56s.95,7.91,2.86,10.65c1.91,2.73,4.47,4.75,7.7,6.05,3.23,1.3,6.83,1.95,10.81,1.95h14.15ZM160.45,44.06v19.8h-7.46c-3.81,0-6.73-.84-8.74-2.53-2.02-1.69-3.02-3.91-3.02-6.67,0-3.37,1.13-5.98,3.4-7.83,2.26-1.85,5.69-2.78,10.27-2.78h5.55Z"/>
        </g>
        <rect class="cls-3" x="257.22" y=".13" width="9.65" height="9.65" rx="2" ry="2"/>
      </g>
      <g>
        <path class="cls-2" d="M41.56,87.11h-10.52c-1.1,0-2-.9-2-2v-5.26c0-10.95,0-16.44,1.83-21.68,1.61-4.6,4.29-8.86,7.73-12.31,3.45-3.45,7.71-6.12,12.31-7.73,4.91-1.72,10.04-1.83,19.67-1.83,1.11,0,2.01.9,2.01,2v10.52c0,1.1-.9,2-2.01,2-7.75,0-12.19.08-14.88,1.02-5.24,1.83-9.3,5.89-11.14,11.14-1.02,2.91-1.02,7.87-1.02,16.88v5.26c0,1.1-.9,2-2,2Z"/>
        <path class="cls-1" d="M0,48.81v-10.52c0-1.1.9-2,2.01-2,7.75,0,12.19-.08,14.88-1.02,5.24-1.83,9.3-5.89,11.14-11.14,1.02-2.91,1.02-7.87,1.02-16.88V2c0-1.1.9-2,2-2h10.52c1.1,0,2,.9,2,2v5.26c0,10.95,0,16.44-1.83,21.68-1.61,4.6-4.29,8.86-7.73,12.31-3.45,3.45-7.71,6.12-12.31,7.73-4.91,1.72-10.04,1.83-19.67,1.83C.9,50.81,0,49.92,0,48.81Z"/>
      </g>
    </g>
  </g>
</svg>